# xmcd
#
# Track frame offsets:
#	150
#	15587
#	33495
#	51130
#	70030
#	85075
#	98595
#	114775
#	131007
#	150655
#
# Disc length: 2327 seconds
#
# Revision: 0
# Processed by: cddbd v1.5.2PL0 Copyright (c) Steve Scherf et al.
# Submitted via: audiograbber 1.83.01
#
DISCID=6e09150a
DTITLE=Dan Sauer - Still Kicking Dan Sauer
DYEAR=2000
DGENRE=Country
TTITLE0=Still Kickin´
TTITLE1=Run Away
TTITLE2=This Time
TTITLE3=It´s Ok By Me
TTITLE4=Sue
TTITLE5=Walking In His Sundown
TTITLE6=Denver Citty Jail
TTITLE7=Thinking Of You
TTITLE8=Goodbye
TTITLE9=This Time
EXTD=
EXTT0=
EXTT1=
EXTT2=
EXTT3=
EXTT4=
EXTT5=
EXTT6=
EXTT7=
EXTT8=
EXTT9=
PLAYORDER=
